<svg id="Layer_2" data-name="Layer 2" xmlns="http://www.w3.org/2000/svg" viewBox="0 0 427.8 427.34"><defs><style>.cls-1{fill:#231f20;}.cls-2{fill:none;stroke:#231f20;stroke-miterlimit:10;stroke-width:8px;}</style></defs><polygon class="cls-1" points="131.63 24.25 129 404.73 162.31 415.25 165.82 11.09 131.63 24.25"/><path class="cls-1" d="M254.27,257.33s75.82,82.37,258.34,24.81c0,0,6.55,31.82-11.23,53.82,0,0-32.29,33.23-147.89,10.76,0,0-78.16-15.44-100.16-53.82C227.12,248.91,254.27,257.33,254.27,257.33Z" transform="translate(-92.84 -51.95)"/><path class="cls-1" d="M99.09,292.6s63.51,7.88,123.36-17.84,112.34-56.7,112.34-56.7,77.56-49.25,113.88-106.24L431.9,96.73l-.56,2.79S325.18,209.6,259.25,236.42L223.49,256a282.5,282.5,0,0,1-56.44,21.23c-32.4,8.38-67.61,2.23-67.61,2.23Z" transform="translate(-92.84 -51.95)"/><ellipse class="cls-2" cx="213.9" cy="213.67" rx="209.9" ry="209.67"/></svg>